<?xml version="1.0" standalone="no"?>
<!DOCTYPE svg PUBLIC "-//W3C//DTD SVG 20010904//EN"
 "http://www.w3.org/TR/2001/REC-SVG-20010904/DTD/svg10.dtd">
<svg version="1.0" xmlns="http://www.w3.org/2000/svg"
 width="32.000000pt" height="29.000000pt" viewBox="0 0 32.000000 29.000000"
 preserveAspectRatio="xMidYMid meet">

<g transform="translate(0.000000,29.000000) scale(0.100000,-0.100000)"
fill="#000000" stroke="none">
<path d="M40 201 c0 -49 17 -81 43 -81 7 0 4 -7 -5 -14 -24 -18 -22 -38 6 -65
29 -27 57 -24 71 7 11 25 25 29 25 8 0 -43 72 -44 92 -1 9 21 8 28 -7 45 -16
18 -16 20 -2 20 21 0 35 26 37 70 3 55 1 60 -20 60 -21 0 -100 -72 -100 -91 0
-6 -22 12 -48 40 -30 31 -56 51 -70 51 -20 0 -22 -5 -22 -49z"/>
</g>
</svg>
